<svg width="40" height="40" viewBox="0 0 40 40" fill="none" xmlns="http://www.w3.org/2000/svg">
<g clip-path="url(#clip0_6990_2121)">
<path d="M19.2441 0.755283C29.876 0.337002 38.8326 8.61966 39.2457 19.2518C39.6586 29.8839 31.3713 38.8363 20.7389 39.2438C10.1142 39.6513 1.16961 31.3711 0.756972 20.7466C0.344337 10.122 8.61981 1.17327 19.2441 0.755283Z" fill="#FFF0E6"/>
<path d="M21.6139 12.1174C22.2639 12.1778 22.399 12.5393 22.4034 13.1218C22.4138 14.5 22.4111 15.878 22.4115 17.2562L22.4117 23.6018C22.4114 24.7069 22.4143 25.812 22.4053 26.917C22.4006 27.4835 22.2625 27.7326 21.6916 27.8884C21.4543 27.8587 21.1574 27.751 21.0408 27.543C20.8231 27.1549 20.8963 26.1926 20.8962 25.7511L20.8954 22.7093L20.8953 16.2734C20.8955 15.1595 20.8907 14.0449 20.9029 12.9312C20.9081 12.4642 21.1731 12.2123 21.6139 12.1174Z" fill="#FF5A00"/>
<path d="M11.4942 13.054C11.8139 13.0095 12.3417 13.1331 12.3904 13.4196C12.5593 14.4137 12.4889 16.1025 12.4891 17.0677L12.4886 22.5472C12.4882 23.7041 12.5232 25.2436 12.4416 26.4215C12.4264 26.641 12.1547 26.8315 11.9697 26.9389C11.6421 27.0002 11.3143 26.9391 11.1123 26.6492L11.0984 26.6289C10.9788 26.4538 10.9811 26.2155 10.9786 26.0081C10.9664 24.9813 10.9714 23.9538 10.9712 22.9269L10.9711 17.2131C10.9713 16.1167 10.9441 14.684 11.0067 13.5825C11.019 13.3656 11.3115 13.1629 11.4942 13.054Z" fill="#FF5A00"/>
<path d="M14.8982 14.5332C15.0273 14.5317 15.1483 14.5359 15.272 14.577C15.459 14.6391 15.6172 14.7654 15.7037 14.9447C15.7927 15.1295 15.7824 15.4108 15.7893 15.6144C15.8201 16.5244 15.862 24.6646 15.7248 25.0112C15.6278 25.2564 15.4144 25.3696 15.183 25.4633C15.0551 25.47 14.9207 25.4574 14.799 25.4153C14.5885 25.3425 14.4367 25.1961 14.3463 24.9939C14.2901 24.8683 14.29 24.7145 14.2861 24.5786C14.2619 23.7341 14.2187 15.3157 14.3349 15.0169C14.4355 14.7587 14.6575 14.639 14.8982 14.5332Z" fill="#FF5A00"/>
<path d="M31.3816 14.8477C31.8468 14.805 32.2889 15 32.305 15.5289C32.3893 18.3256 32.3207 21.1347 32.3378 23.9342C32.3416 24.5477 32.3602 24.8489 31.7818 25.1474C31.1862 25.194 30.8443 24.928 30.831 24.3248C30.8162 23.6471 30.8188 22.973 30.8184 22.2953L30.8183 18.6656C30.8187 17.6771 30.7861 16.3552 30.8647 15.3498C30.8806 15.1456 31.2048 14.9458 31.3816 14.8477Z" fill="#FF5A00"/>
<path d="M8.28354 16.3341C8.42682 16.3299 8.56768 16.3435 8.70229 16.3966C8.87967 16.4665 9.02987 16.6006 9.1035 16.7786C9.22729 17.0779 9.24803 22.904 9.10362 23.2237C8.99381 23.4668 8.77959 23.5715 8.54424 23.6664C7.89569 23.6999 7.66014 23.2657 7.66784 22.665C7.69248 20.734 7.57827 18.7422 7.72178 16.8198C7.73698 16.6164 8.11143 16.4073 8.28354 16.3341Z" fill="#FF5A00"/>
<path d="M24.8528 16.332C24.9927 16.3307 25.1168 16.3438 25.248 16.3978C25.4368 16.4755 25.584 16.6291 25.6535 16.8211C25.7868 17.1821 25.6947 22.1224 25.7032 22.8389C25.7043 22.9314 25.6737 23.168 25.6228 23.2611C25.489 23.5057 25.3068 23.5834 25.057 23.6684C24.9333 23.6728 24.8205 23.6588 24.7052 23.6115C24.518 23.5348 24.3526 23.3951 24.2775 23.2037C24.1527 22.8861 24.1535 17.0374 24.286 16.7646C24.4016 16.5267 24.6151 16.4173 24.8528 16.332Z" fill="#FF5A00"/>
<path d="M18.2923 17.2339C18.4399 17.2422 18.5905 17.2746 18.7203 17.3472C18.864 17.4276 18.9948 17.5671 19.0381 17.7287C19.1596 18.1816 19.1687 22.0833 18.9885 22.3889C18.8566 22.6126 18.6296 22.7102 18.388 22.7673C18.2533 22.7538 18.1123 22.7276 17.992 22.6636C17.8257 22.575 17.689 22.4312 17.6389 22.2461C17.5187 21.8019 17.5151 17.9142 17.6898 17.6141C17.8196 17.3912 18.0528 17.2905 18.2923 17.2339Z" fill="#FF5A00"/>
<path d="M28.2067 18.132C28.8577 18.1898 29.049 18.5706 29.0267 19.1896C29.0003 19.9277 29.1235 20.7643 28.9198 21.4711C28.8629 21.6684 28.5293 21.8086 28.3547 21.8607C27.7042 21.821 27.4893 21.4318 27.5097 20.8125C27.534 20.0756 27.4165 19.246 27.6168 18.5384C27.6755 18.331 28.0256 18.187 28.2067 18.132Z" fill="#FF5A00"/>
<path d="M34.7453 18.4423C35.6573 18.3981 35.6881 19.2832 35.6637 19.9639C35.6404 20.6131 35.7635 21.2389 35.0649 21.5439C33.8147 21.6867 34.1552 20.0224 34.1347 19.2795C34.1216 18.8039 34.3599 18.6155 34.7453 18.4423Z" fill="#FF5A00"/>
<path d="M4.96806 18.4427C5.86317 18.3887 5.92095 19.2602 5.87974 19.9318C5.83509 20.6595 6.05548 21.2688 5.22235 21.5562C4.04868 21.578 4.37837 20.0391 4.35868 19.2802C4.34669 18.8198 4.58735 18.6081 4.96806 18.4427Z" fill="#FF5A00"/>
</g>
<defs>
<clipPath id="clip0_6990_2121">
<rect width="40" height="40" fill="white"/>
</clipPath>
</defs>
</svg>
