<svg width="40" height="40" viewBox="0 0 40 40" fill="none" xmlns="http://www.w3.org/2000/svg">
<path d="M27.4312 6.65839C27.9901 6.64913 28.6079 6.61878 29.1608 6.6655C31.1921 6.83706 31.7724 8.19382 31.6467 9.98671C31.9948 9.99152 32.3502 9.98718 32.6956 10.0214C34.111 10.1616 34.9916 11.2089 34.9965 12.6131C35.0008 13.863 35.0032 15.1156 35.0029 16.3651L35.0025 23.4944L35.0045 27.3373C35.0046 28.0863 35.0312 28.8591 34.947 29.6012C34.8432 30.5163 33.9478 31.4609 33.037 31.6106C32.1308 31.7596 31.0759 31.6891 30.1438 31.6962C28.1568 31.7114 26.1638 31.6688 24.1765 31.7098C23.0743 31.6705 22.0681 32.3728 21.7915 33.4546C21.6375 34.0566 21.6911 34.989 20.8125 35.0044C19.934 35.0199 20.0389 33.9626 19.8486 33.3732C19.7266 32.9947 19.5147 32.6513 19.231 32.3726C18.3846 31.5401 17.3437 31.6857 16.2397 31.6933L11.5576 31.6974C11.2217 31.6983 10.8783 31.705 10.5472 31.7004C9.45896 31.6855 8.35408 31.835 7.49353 31.0202C6.8833 30.4425 6.69092 29.9485 6.6751 29.0975C6.65213 27.8642 6.66217 26.6355 6.66236 25.4044L6.6633 18.4814L6.66139 14.4016C6.66123 13.6255 6.63162 12.7321 6.72674 11.9708C6.77978 11.5462 7.10318 11.0385 7.38681 10.73C7.84998 10.2262 8.58236 10.0073 9.25568 10.0009C10.6193 9.98788 11.997 10.0007 13.3622 10.0006L15.9697 9.99659C18.0164 9.99292 18.9816 9.8782 20.5777 11.3505C20.8168 10.6393 21.3855 9.7448 21.8883 9.19066C23.4408 7.47937 25.1825 6.79112 27.4312 6.65839ZM9.81584 11.6979C8.95838 11.7013 8.36767 11.6126 8.33275 12.6966C8.30971 13.4109 8.32174 14.1295 8.32201 14.8443L8.32349 18.9297L8.32529 25.6316C8.32533 26.6932 8.31771 27.7556 8.32099 28.8166C8.34041 29.1298 8.32213 29.5052 8.57256 29.7365C8.67873 29.8346 8.80974 29.9229 8.95455 29.9439C9.59724 30.0367 10.3178 30.0022 10.9654 30.0018L15.3761 29.9979C16.5017 29.996 18.0595 29.8775 19.0845 30.3301C19.4086 30.4766 19.7198 30.6364 19.9992 30.86L20.0001 19.176L20.0033 15.8116C20.0041 14.6514 20.1831 13.2948 19.2676 12.4135C18.6732 11.8413 18.1619 11.7006 17.3429 11.6936C16.5173 11.6866 15.6878 11.6913 14.8606 11.6924L9.94111 11.6953C9.89935 11.6954 9.8576 11.6962 9.81584 11.6979ZM21.6553 29.4593C22.1617 28.8761 22.5676 28.4518 23.2107 28.0043C24.6887 26.996 26.207 26.6236 27.9856 26.6546C28.4247 26.6622 29.0437 26.6895 29.4576 26.5949C29.6924 26.5412 29.9406 26.221 29.9636 25.9866C30.0224 25.3875 30.0028 24.6769 30.0029 24.0708L30.0022 20.1894L30.0017 13.0366C30.0021 11.773 30.0112 10.505 29.9882 9.24441C29.9793 8.75925 29.7485 8.40073 29.2472 8.37472C28.6149 8.34195 27.8505 8.32366 27.2234 8.37484C25.5238 8.50292 24.2003 9.05437 23.062 10.3774C22.425 11.1209 21.9889 12.015 21.7952 12.9746C21.5937 13.9895 21.6646 16.3744 21.6655 17.4927L21.6681 25.4641L21.668 28.0245C21.6679 28.4603 21.6835 29.0329 21.6553 29.4593ZM23.3577 30.0815C23.9532 30.0083 24.418 29.9935 25.019 29.9996L29.919 30.0014C30.8233 30.0016 31.8548 30.0537 32.7469 29.9263C33.0775 29.8791 33.2642 29.5574 33.3044 29.2566C33.3471 28.5774 33.3321 27.8738 33.3319 27.1873L33.3317 23.3752L33.332 16.4548C33.3326 15.2121 33.336 13.966 33.328 12.7233C33.3256 12.3534 33.3071 12.221 33.1054 11.9028C32.5326 11.5541 32.2895 11.7737 31.6817 11.6769C31.6227 12.7988 31.6654 14.2767 31.6658 15.4312L31.6676 22.4466L31.6679 24.6412C31.6679 25.2042 31.7003 25.7908 31.5952 26.3459C31.4934 26.8841 31.2285 27.3338 30.8211 27.6995C29.1111 29.2348 26.1117 27.2034 23.3577 30.0815Z" fill="white"/>
<path d="M10.9887 21.6576C12.2509 21.6233 13.58 21.6692 14.8518 21.6531C15.745 21.6665 16.6416 21.6247 17.5329 21.6824C18.2116 21.7263 18.5433 22.4438 18.1629 22.9952C17.9886 23.2477 17.71 23.3079 17.4317 23.3515C15.2579 23.3976 13.0347 23.3413 10.8594 23.3385C10.6678 23.3383 10.4245 23.2594 10.2752 23.1335C10.1152 22.9995 10.0164 22.8064 10.0011 22.5983C9.94602 21.9243 10.4214 21.7061 10.9887 21.6576Z" fill="white"/>
<path d="M10.7508 25.0123C11.768 24.9663 12.8353 25.0082 13.8582 24.9974C15.0247 24.985 16.1987 24.9962 17.3647 25.0102C17.507 25.0281 17.8113 25.0408 17.9245 25.1254C18.64 25.6604 18.3398 26.4786 17.5826 26.6744C17.3643 26.69 17.1523 26.6959 16.9335 26.6946C14.9322 26.6823 12.9291 26.7176 10.9286 26.688C9.81871 26.6715 9.6118 25.2458 10.7508 25.0123Z" fill="white"/>
<path d="M10.7486 15.0126C11.7665 14.9658 12.834 15.0071 13.8576 14.9967C15.0242 14.9848 16.1985 14.9949 17.3646 15.0101C17.5069 15.0281 17.8118 15.0412 17.9249 15.1256C18.6397 15.6593 18.3409 16.4801 17.5824 16.6734C17.3703 16.6884 17.163 16.6948 16.9503 16.6933C14.9361 16.6793 12.9183 16.7185 10.9052 16.6848C9.83546 16.6668 9.60678 15.2487 10.7486 15.0126Z" fill="white"/>
<path d="M10.8121 18.3372C12.9553 18.2487 15.1851 18.3757 17.3336 18.3397C18.5735 18.3189 18.66 19.7534 17.5816 19.9971C15.837 20.0807 14.008 19.9644 12.2548 20.0177C11.7983 20.0315 10.6375 20.0775 10.2956 19.8128C10.13 19.6831 10.0244 19.4915 10.0032 19.2822C9.94417 18.7457 10.2986 18.3947 10.8121 18.3372Z" fill="white"/>
</svg>
