<svg width="24" height="24" viewBox="0 0 24 24" fill="none" xmlns="http://www.w3.org/2000/svg">
<path d="M6.06799 0.75946C6.57368 0.732341 7.17715 0.748316 7.69326 0.748423L10.5621 0.748712L12.482 0.747657C14.469 0.747533 14.5481 0.866347 15.9175 2.27589L17.4934 3.89855L18.8696 5.30297C20.0953 6.54999 20.2514 6.68161 20.252 8.45902L20.2522 9.82625L20.2512 14.4332L20.2517 18.7748C20.2518 19.4972 20.2896 20.3417 20.2213 21.0502C20.1068 22.2378 19.1114 23.1191 17.9365 23.2456C17.1232 23.287 16.1155 23.26 15.2827 23.2599L10.4909 23.2592L7.61118 23.2614C6.54178 23.2624 5.5732 23.4002 4.68175 22.693C4.17637 22.2894 3.85075 21.7026 3.77575 21.0602C3.73614 20.7118 3.74953 20.2516 3.75023 19.894L3.75159 18.143L3.75091 12.181L3.75028 6.00936L3.75032 4.13084C3.75037 3.78758 3.73765 3.2929 3.77421 2.96326C3.82368 2.49816 4.00577 2.05708 4.29876 1.69251C4.76894 1.10448 5.33275 0.84196 6.06799 0.75946ZM17.7472 21.7459C18.5289 21.6593 18.7611 21.1914 18.7513 20.4715C18.7459 20.0787 18.7523 19.6703 18.7521 19.2756L18.7507 16.5145L18.7499 7.84425C18.1869 7.87693 17.4221 7.85712 16.8488 7.86125C16.3599 7.86479 15.3653 7.90245 14.9422 7.80448C14.604 7.72735 14.2912 7.56533 14.0332 7.33367C13.6196 6.96429 13.3412 6.37236 13.3519 5.82087C13.3743 4.65865 13.296 3.42134 13.3516 2.26615L8.92432 2.25861C8.1064 2.25864 7.1579 2.23585 6.34713 2.26161C5.03198 2.34563 5.24843 3.36429 5.24955 4.34914L5.2518 6.29304L5.25164 12.3217L5.25117 18.0055L5.25054 19.8127C5.25054 20.1186 5.23849 20.5386 5.26043 20.8317C5.27725 21.087 5.39522 21.325 5.58818 21.493C5.74052 21.6247 5.93901 21.7165 6.13917 21.731C6.60839 21.7649 7.11032 21.7503 7.58193 21.7498L10.1616 21.749L15.1097 21.7491C15.9777 21.7491 16.8824 21.7614 17.7472 21.7459ZM14.9342 6.1354C15.0231 6.2112 15.1193 6.28613 15.24 6.29944C15.9667 6.37953 16.718 6.31151 17.4501 6.33244C17.5254 6.3346 17.6345 6.34046 17.707 6.33589C17.6514 6.2322 14.9373 3.43815 14.8385 3.39338C14.8325 3.9147 14.8294 4.43607 14.829 4.95744C14.8282 5.32794 14.7843 5.79758 14.9342 6.1354Z" fill="#FF5A00"/>
<path d="M8.86999 9.94349C9.17719 9.91797 9.5918 9.92833 9.90659 9.92824L11.594 9.92819L13.7232 9.92875C14.0463 9.92887 15.115 9.89233 15.3462 10.0166C15.5322 10.1172 15.6688 10.2897 15.7243 10.4938C15.8414 10.927 15.5552 11.3103 15.1369 11.4202C14.9233 11.4502 14.4777 11.4397 14.2435 11.4399L12.669 11.4406L10.3263 11.4407C9.93246 11.4407 8.92575 11.4958 8.63374 11.3415C8.04213 11.0289 8.13577 10.116 8.86999 9.94349Z" fill="#FF5A00"/>
<path d="M8.85771 14.8422C9.09705 14.8158 9.4919 14.8259 9.74219 14.8257L11.2132 14.8249L13.5613 14.8249C13.885 14.825 15.0242 14.7839 15.2965 14.8927C15.9172 15.1408 15.9167 16.0835 15.1626 16.3112C14.8858 16.3451 14.4453 16.3337 14.1543 16.3339L12.5496 16.3346L10.2906 16.3346C9.90583 16.3346 8.92176 16.3869 8.62887 16.233C8.05019 15.929 8.13581 15.011 8.85771 14.8422Z" fill="#FF5A00"/>
</svg>
