<svg width="147" height="7" viewBox="0 0 147 7" fill="none" xmlns="http://www.w3.org/2000/svg">
<g clip-path="url(#clip0_6990_2384)">
<path d="M134.419 0.6787C131.251 0.623169 128.029 0.568372 124.807 0.513576C123.769 0.494821 122.677 0.509508 121.639 0.490753C119.346 0.488888 117.053 0.487024 114.759 0.485159C113.503 0.469341 112.193 0.486966 110.937 0.471149C110.554 0.476289 110.172 0.48143 109.845 0.485836C109.026 0.496851 108.207 0.507867 107.333 0.519617C103.566 0.570288 99.7994 0.620959 96.0324 0.67163C95.1589 0.68338 94.2308 0.695864 93.3577 0.740322C91.1198 0.803139 88.936 0.832514 86.6981 0.895331C84.1872 0.96182 81.6758 0.9956 79.165 1.06209C75.1259 1.18185 71.0322 1.30234 66.9931 1.4221C64.6459 1.48639 62.2988 1.55067 59.9517 1.61496C55.9131 1.76743 51.8744 1.91989 47.8357 2.07236C45.5983 2.16788 43.4149 2.22997 41.1774 2.32549C36.9759 2.54558 32.7739 2.73296 28.5719 2.92033C26.3344 3.01586 24.0969 3.11138 21.8598 3.23962C17.7133 3.49168 13.5126 3.77718 9.36655 4.06195C8.49348 4.10641 7.56626 4.18431 6.6386 4.2295C4.8929 4.35112 3.09349 4.5389 1.29363 4.69396C1.18444 4.69543 1.0757 4.72961 0.966507 4.73108C0.74813 4.73401 0.585227 4.80163 0.422764 4.90196C0.151992 5.06917 0.0454436 5.26689 0.0480834 5.46314C0.0507232 5.65939 0.162552 5.85416 0.437283 5.98132C0.65742 6.10922 1.0409 6.2022 1.31387 6.19853C3.49588 6.03832 5.62286 5.84614 7.80487 5.68594C9.82354 5.56064 11.8422 5.43535 13.8609 5.31005C16.0433 5.18255 18.2253 5.02235 20.4624 4.89411C21.3355 4.84965 22.2081 4.77249 23.1358 4.7273C26.5739 4.58291 29.957 4.40654 33.3951 4.26216C35.5234 4.1681 37.6517 4.07404 39.78 3.97999C40.6531 3.93553 41.5261 3.89107 42.3992 3.84661C45.7827 3.70296 49.1667 3.59201 52.5502 3.44836C54.6244 3.38774 56.6435 3.29516 58.7176 3.23454C59.4273 3.22499 60.082 3.18347 60.7918 3.17393C64.4487 3.05931 68.1061 2.9774 71.763 2.86278C73.7826 2.8029 75.8567 2.74229 77.8763 2.68241C78.586 2.67286 79.3499 2.62987 80.0596 2.62032C83.8262 2.53694 87.5932 2.48627 91.4143 2.40216C93.7619 2.37058 96.109 2.3063 98.4565 2.27472C102.442 2.22111 106.482 2.16677 110.468 2.14587C111.232 2.13559 112.051 2.15728 112.816 2.147C115.055 2.1496 117.239 2.15293 119.478 2.18824C121.116 2.19891 122.809 2.20886 124.447 2.21953C125.649 2.23609 126.796 2.25337 127.997 2.26992C131.438 2.32178 134.934 2.40562 138.375 2.49018C139.249 2.51114 140.123 2.5321 140.997 2.55306C141.926 2.57328 142.909 2.59277 143.838 2.6457C144.001 2.6435 144.111 2.67474 144.275 2.70524C144.658 2.73281 144.985 2.7284 145.311 2.59317C145.637 2.49064 145.853 2.29145 145.96 2.09373C146.172 1.66559 145.73 1.21355 144.963 1.093C144.307 1.00369 143.651 0.979796 143.05 0.922458C142.613 0.895625 142.176 0.868792 141.739 0.874667C140.864 0.821001 139.991 0.83275 139.171 0.77835C137.642 0.766204 136.003 0.722819 134.419 0.6787Z" fill="#FF8040"/>
</g>
<defs>
<clipPath id="clip0_6990_2384">
<rect width="146" height="4.25243" fill="white" transform="translate(0 1.96387) rotate(-0.770657)"/>
</clipPath>
</defs>
</svg>
