<svg width="32" height="32" viewBox="0 0 32 32" fill="none" xmlns="http://www.w3.org/2000/svg">
<g clip-path="url(#clip0_6990_2326)">
<path d="M0 14.6001C0.114341 14.3101 0.147886 13.7341 0.193302 13.4093C0.860509 8.63746 3.64984 4.56065 8.04897 2.51021C11.7239 0.810619 15.9212 0.630085 19.7285 2.00784C23.1893 3.23762 26.0076 5.81158 27.5452 9.14696C28.5031 11.2099 28.8371 13.1417 28.9914 15.3826C29.4164 15.4908 29.8656 15.5939 30.2843 15.7185C30.8539 15.8879 31.5969 16.0295 31.9188 16.5721C31.9475 16.6209 31.9747 16.6706 32 16.7211V29.2692C31.2894 30.4666 30.656 29.822 29.5847 29.5423C27.435 28.9811 24.5853 28.6318 22.5797 29.7628C21.9943 30.0882 21.4918 30.5441 21.1109 31.0949C20.9406 31.3416 20.806 31.5931 20.5796 31.7947C20.4586 31.9025 20.3552 31.9231 20.2428 32H19.7773C19.0303 31.5766 18.922 30.9362 18.2978 30.3833C15.9688 28.3208 12.2446 28.9644 9.53669 29.8366C9.31469 29.9081 9.17541 29.9557 8.94247 29.9718C8.56097 29.9982 8.08853 29.596 8.05991 29.2551C8.00334 28.5821 8.02975 27.9118 8.03003 27.2471L8.03209 22.9884C6.36294 22.9756 4.69372 22.9721 3.02454 22.9781C2.32851 22.9786 1.34542 23.0241 0.658397 22.9317C0.3814 22.8945 0.132042 22.5183 0 22.2804V14.6001ZM9.91037 17.6506C9.88625 18.5501 9.91159 19.4612 9.9015 20.3614C9.87412 22.8042 9.93847 25.2883 9.90069 27.7273C12.0916 27.1973 13.9347 26.9051 16.1881 27.324C17.4548 27.6179 18.0033 27.8776 19.0849 28.5608C19.0506 27.7614 19.073 26.8294 19.0731 26.0224L19.0741 21.4778C19.0743 20.86 19.0743 20.2392 19.0735 19.6215C19.0728 19.1074 18.904 18.9602 18.5773 18.6014C17.1944 17.0822 15.3566 16.9201 13.4323 16.9836C12.2918 17.0242 10.9985 17.3144 9.91037 17.6506ZM30.1246 27.7383L30.1253 17.6448C28.5482 17.1614 27.0219 16.8796 25.3607 16.9823C23.9093 17.0236 22.5068 17.4824 21.4807 18.5516C20.8194 19.2407 20.9511 19.5767 20.9515 20.4775L20.9526 22.4351L20.9547 26.224C20.9541 26.6606 20.895 28.1786 20.981 28.4937C21.0743 28.4938 21.1281 28.4466 21.2042 28.3962C22.292 27.6759 23.6528 27.2496 24.9609 27.1648C26.7023 27.0571 28.4492 27.2512 30.1246 27.7383ZM1.88017 21.0729C2.50079 21.0593 3.12247 21.0879 3.74325 21.0777C3.82972 21.0763 3.91587 21.0766 4.00206 21.0849C4.03522 19.8031 4.05788 18.2671 4.01266 17.0158C3.88944 13.6055 4.63419 10.2865 7.21978 7.87858C7.82897 7.31124 8.99853 6.4128 9.82056 6.1183C12.4774 4.89093 15.5106 4.75827 18.2645 5.74899C20.761 6.63355 22.7968 8.48508 23.9136 10.8867C24.5005 12.1429 24.8759 13.692 24.9596 15.0782C25.6502 15.0432 26.4214 15.0418 27.1078 15.1171C27.0548 14.7675 27.0384 14.4103 26.9949 14.0583C26.1549 7.25796 20.898 2.85172 14.0685 2.98453C7.30241 3.1763 2.33288 8.1358 1.91823 14.8001C1.85732 15.779 1.87755 16.7523 1.87607 17.7328C1.88369 18.8262 1.85352 19.9861 1.88017 21.0729ZM19.0828 16.5008C19.072 16.0364 19.0895 15.5551 19.0449 15.0947C18.7992 12.5587 16.8806 10.9159 14.3752 10.9779C14.3337 10.9788 14.2922 10.9803 14.2508 10.9826C13.0522 11.0176 11.9597 11.4616 11.1341 12.341C10.2291 13.3051 9.97694 14.3755 9.89647 15.6512C10.3681 15.5708 10.837 15.4343 11.3107 15.3444C12.7042 15.0799 14.0345 14.9648 15.4452 15.14C16.894 15.3352 17.8668 15.6882 19.0828 16.5008ZM14.0973 6.98415C9.49466 7.1069 6.13753 10.6141 5.91459 15.1245C5.87653 15.8945 5.88741 16.6606 5.88744 17.4306L5.88831 21.0708C6.40603 21.0683 7.54622 21.0477 8.02631 21.0896C8.01553 19.97 8.04853 18.8156 8.03084 17.6975C7.99075 15.1633 7.93769 12.8951 9.86712 10.9301C10.2359 10.5606 10.6493 10.2384 11.0976 9.97087C14.2511 8.24496 18.2896 9.03108 20.1189 12.2863C20.8984 13.6735 20.9549 14.9516 20.9571 16.4921C21.5728 16.0851 22.3486 15.626 23.0766 15.4686C23.0852 14.4385 22.8186 13.2515 22.465 12.2891C21.286 9.07899 18.1355 6.99618 14.7232 6.97515C14.5145 6.97415 14.3058 6.97715 14.0973 6.98415Z" fill="white"/>
<path d="M13.8691 19.0781C14.38 19.0718 14.8909 19.0972 15.3987 19.1543C15.8639 19.205 16.4542 19.2654 16.7609 19.6577C16.9026 19.8386 16.9646 20.0692 16.9328 20.2968C16.8964 20.5547 16.7591 20.7877 16.5511 20.9446C16.1626 21.2376 15.6937 21.1072 15.2427 21.0419C14.7825 20.9507 14.0253 20.9691 13.5348 21.0012C12.9171 21.0417 12.0781 20.9786 12.0511 20.1378C12.0163 19.0544 13.0803 19.1104 13.8691 19.0781Z" fill="white"/>
<path d="M13.7179 23.1081C14.2741 23.0862 14.9025 23.1215 15.454 23.181C15.8999 23.2394 16.4679 23.2906 16.7619 23.6784C17.0816 24.104 16.9285 24.6995 16.514 25.0036C16.1789 25.2495 15.7104 25.1247 15.3202 25.0732C14.4537 24.9691 13.7091 25.0358 12.8619 25.0083C12.1378 24.9847 11.7718 24.0039 12.2873 23.4696C12.6617 23.0815 13.2161 23.1316 13.7179 23.1081Z" fill="white"/>
<path d="M25.711 19.0771C26.2092 19.0625 26.8897 19.0743 27.3638 19.2067C28.0083 19.3867 28.1564 20.2586 27.7101 20.7317C27.6033 20.8449 27.4667 20.9256 27.3159 20.9644C27.108 21.0168 25.6244 20.9833 25.2422 20.9982C24.674 21.016 23.9109 21.3263 23.4297 20.9305C23.0409 20.646 23.0019 19.8909 23.3444 19.5606C23.8105 19.1112 25.0844 19.1072 25.711 19.0771Z" fill="white"/>
<path d="M25.5591 23.1084C25.7215 23.1015 25.8864 23.1002 26.0489 23.1047C26.7699 23.1252 27.9334 23.0368 27.9711 24.0514C27.9818 24.3118 27.8865 24.5655 27.7072 24.7546C27.5954 24.8709 27.4524 24.9525 27.2954 24.9897C27.0391 25.0511 25.8172 24.9951 25.4141 25.005C24.821 25.0407 23.9023 25.3429 23.4371 24.9519C23.2439 24.7896 23.1247 24.556 23.1065 24.3043C23.0074 23.0864 24.7295 23.1569 25.5591 23.1084Z" fill="white"/>
<path d="M3.27444 26.132C3.31659 26.129 3.35881 26.1271 3.40109 26.1262C4.36356 26.1095 4.38178 26.8755 4.39247 27.5972C4.47522 27.597 4.558 27.5976 4.64075 27.599C5.01378 27.606 5.38641 27.651 5.65747 27.9407C5.82341 28.119 5.90878 28.3577 5.8935 28.6008C5.84844 29.422 5.04322 29.5387 4.39681 29.4948C4.38056 30.2033 4.41109 30.7716 3.59219 30.9899C3.53175 30.9918 3.47125 30.9923 3.41078 30.9914C2.52156 30.9742 2.49473 30.1674 2.51198 29.5122C2.03268 29.5068 1.61835 29.5557 1.2591 29.197C1.0889 29.03 0.993623 28.8011 0.99501 28.5627C0.994651 28.3066 1.09907 28.0615 1.284 27.8843C1.61586 27.5713 2.0798 27.603 2.50199 27.6118C2.49397 26.9156 2.47221 26.3333 3.27444 26.132Z" fill="white"/>
<path d="M28.6213 3.00884C28.619 2.97478 28.6178 2.94067 28.6174 2.90653C28.6136 2.52453 28.5834 2.07614 28.8827 1.78094C29.2328 1.43554 29.8911 1.42923 30.236 1.78881C30.5343 2.09982 30.5033 2.59767 30.4993 3.00407C31.2771 2.99873 31.6174 2.97322 31.9999 3.72445V4.15883C31.6434 4.87939 31.2637 4.95961 30.5049 4.88233C30.5006 5.28617 30.5317 5.79548 30.2322 6.10582C29.8727 6.47848 29.2218 6.47223 28.8606 6.10564C28.5633 5.80386 28.6185 5.30914 28.6248 4.91695C28.2143 4.90442 27.689 4.92961 27.3779 4.62226C27.0157 4.26436 27.0496 3.62011 27.397 3.26439C27.6968 2.95747 28.2222 3.00842 28.6213 3.00884Z" fill="white"/>
<path d="M1.66587 0H2.20349C2.68765 0.291928 2.80762 0.405603 2.89752 0.975559C4.27531 1.23122 4.14853 2.70903 2.91199 2.91307C2.83061 3.26031 2.74481 3.54178 2.41514 3.74556C2.19967 3.87759 1.93954 3.91569 1.69526 3.85097C1.21806 3.72597 1.03792 3.36078 0.988309 2.90862C0.434078 2.82582 0.284162 2.68686 0 2.20706V1.68488C0.0523978 1.59404 0.106737 1.50433 0.162979 1.41583C0.374375 1.08974 0.621881 1.05151 0.966812 0.979662C0.981084 0.914566 0.99625 0.849669 1.0123 0.784988C1.12532 0.333131 1.29417 0.223937 1.66587 0Z" fill="white"/>
</g>
<defs>
<clipPath id="clip0_6990_2326">
<rect width="32" height="32" fill="white"/>
</clipPath>
</defs>
</svg>
