<svg width="32" height="24" viewBox="0 0 32 24" fill="none" xmlns="http://www.w3.org/2000/svg">
<g clip-path="url(#clip0_6990_2360)">
<path d="M0 11.1099C0.144514 10.9058 0.220899 10.536 0.350541 10.2951C0.856756 9.37321 1.86934 8.66031 3.12803 8.33962C4.30072 8.04229 5.58316 8.10857 6.69041 8.52372C7.78803 8.93462 8.62325 9.65556 9.01247 10.5281C9.13534 10.8077 9.21041 11.098 9.23588 11.3918C9.28197 11.9464 9.25347 12.7011 9.2535 13.2658L9.25253 16.66L9.2535 19.2933C9.25384 19.8112 9.27453 20.3435 9.22188 20.8576C9.08444 22.1988 7.80319 23.3749 6.12544 23.8184C5.93075 23.8699 5.45588 23.9281 5.30822 23.9998H3.97759C3.84081 23.9482 3.26022 23.85 3.06296 23.7975C1.83913 23.4722 0.8547 22.7581 0.346872 21.8652C0.213766 21.6311 0.142349 21.235 0 21.0412V11.1099ZM4.90575 22.1048C5.96012 21.9456 6.67944 21.4205 6.7335 20.5882C6.76597 20.0881 6.75216 19.5883 6.75231 19.0876L6.753 16.2733L6.75266 13.1968C6.75244 12.5867 6.82784 11.7296 6.65562 11.1635C6.43062 10.4239 5.30944 9.96501 4.35969 10.0615C3.38622 10.1559 2.60326 10.6946 2.53115 11.4489C2.4772 12.0132 2.50116 12.5943 2.50096 13.1617L2.50049 16.3842L2.5011 19.233C2.50124 19.6427 2.5136 20.0695 2.50662 20.4765C2.48913 21.4955 3.57406 22.209 4.90575 22.1048Z" fill="white"/>
<path d="M26.7276 24.0002C26.6459 23.9695 26.2936 23.9003 26.1861 23.8792C25.8239 23.8082 25.5815 23.7435 25.2475 23.6132C24.1624 23.192 23.3437 22.466 22.9699 21.5936C22.8532 21.3132 22.7838 21.0229 22.7634 20.7295C22.7228 20.2284 22.7502 19.5553 22.7506 19.0406L22.7512 15.9715L22.75 13.4625C22.75 13.0197 22.7269 12.382 22.7845 11.9585C22.8411 11.5185 23.0127 11.0912 23.2894 10.7009C23.8517 9.89142 24.823 9.28464 25.9863 9.01631C27.1701 8.73815 28.4534 8.82892 29.547 9.26824C30.6559 9.71322 31.5469 10.5152 31.8375 11.4418C31.8841 11.5893 31.9412 11.7419 32 11.8866V20.9921L31.99 21.0122C31.8803 21.2335 31.8359 21.4961 31.7219 21.7198C31.2482 22.6471 30.3896 23.306 29.1976 23.7262C28.9194 23.8241 28.1822 23.9392 28.0582 24.0002H26.7276ZM27.535 22.1152C28.5797 22.0003 29.3763 21.507 29.4709 20.6798C29.5282 20.1791 29.5022 19.6642 29.5025 19.1603L29.5034 16.4129L29.5027 13.6994C29.5024 13.1718 29.5608 12.5181 29.4409 12.0132C29.2356 11.1486 28.2756 10.7287 27.192 10.7708C26.831 10.7788 26.6003 10.8249 26.2905 10.9609C25.0617 11.5 25.2518 12.4338 25.2511 13.3562L25.2502 15.2663L25.2507 18.6913C25.251 19.2861 25.2567 19.8846 25.2563 20.479C25.2558 21.4697 26.2159 22.1463 27.535 22.1152Z" fill="white"/>
<path d="M15.3525 23.9999L15.3282 23.9929C14.9954 23.8987 14.5946 23.8485 14.261 23.7473C13.176 23.4184 12.2861 22.7809 11.7976 21.9869C11.6036 21.6712 11.476 21.3349 11.4195 20.99C11.3317 20.4515 11.3722 19.2276 11.3769 18.6473C11.382 18.0163 11.3309 16.9468 11.4041 16.3557C11.4376 16.0556 11.5255 15.7602 11.6653 15.4779C12.0893 14.615 12.954 13.9143 14.0682 13.5305C15.1948 13.1486 16.4775 13.1175 17.6346 13.4439C18.7938 13.7739 19.7288 14.438 20.2312 15.2882C20.4201 15.6099 20.5422 15.9515 20.5932 16.3009C20.6712 16.8069 20.633 17.9142 20.6275 18.4753C20.6213 19.1202 20.6788 20.2617 20.5966 20.8706C20.5572 21.185 20.4597 21.4939 20.3069 21.7881C19.7339 22.8909 18.4913 23.6624 16.9956 23.9184C16.908 23.9334 16.7543 23.9659 16.6832 23.9999H15.3525ZM16.2804 22.1049C17.2088 21.9646 17.9746 21.504 18.0914 20.7443C18.1984 20.0484 18.0863 19.304 18.1243 18.603C18.1116 18.0413 18.1926 16.819 18.0626 16.3524C17.9521 15.9427 17.6261 15.5836 17.1582 15.3564C16.7438 15.1548 16.2225 15.0742 15.7347 15.1241C14.769 15.218 14.0586 15.7146 13.9125 16.4419C13.8535 16.7351 13.8729 17.0573 13.8741 17.3544L13.8793 18.6901L13.875 19.9225C13.8725 20.67 13.8451 21.3075 14.7326 21.8108C15.1633 22.0551 15.7471 22.1542 16.2804 22.1049Z" fill="white"/>
<path d="M0 5.90609C0.0764219 5.80467 0.228343 5.59238 0.330791 5.51271C0.983819 5.00501 2.18469 4.03148 2.91791 3.6634C3.299 3.47358 3.71797 3.33056 4.15909 3.23967C5.27184 3.00492 6.4635 3.11309 7.46944 3.54016C8.16181 3.83428 9.54728 4.84294 10.2034 5.2908L14.5318 8.23931C15.0866 8.61731 15.7115 9.10505 16.3298 9.39963C16.9205 9.68109 17.9229 9.55842 18.4172 9.20013C18.9766 8.79459 19.4927 8.35441 20.0344 7.93383L24.0089 4.80698C24.1148 4.72205 24.2421 4.60453 24.3549 4.53002C25.1173 4.02598 25.8503 2.94966 27.0457 3.45023C27.3388 3.57272 27.5537 3.77855 27.642 4.02129C27.8758 4.67534 27.1898 4.99589 26.685 5.42782C26.5293 5.56111 26.352 5.69048 26.1885 5.81944L23.6558 7.81432L21.3717 9.61306C20.9859 9.91795 20.349 10.4507 19.9352 10.7031C19.4359 11.0089 18.8531 11.2287 18.228 11.3468C17.1047 11.5512 15.9193 11.4146 14.9297 10.9666C14.3121 10.6861 13.092 9.79566 12.484 9.38119L7.95772 6.29663C7.54425 6.01561 6.642 5.33475 6.19569 5.15984C4.60981 4.53834 3.54809 5.80568 2.54656 6.50091C1.98203 6.89278 1.51575 7.31405 0.655816 6.96462C0.242432 6.79664 0.23675 6.62721 0 6.38775V5.90609Z" fill="white"/>
<path d="M24.5388 0H28.8368L28.8605 0.00844966C29.0958 0.0905501 29.4334 0.135017 29.6925 0.216096C30.6285 0.510082 31.3649 1.07683 31.7324 1.78615C31.8384 1.99502 31.9053 2.23582 31.9999 2.41985V5.55415C31.8431 5.79155 31.694 6.01439 31.3837 6.15436C30.7606 6.43552 29.845 6.23681 29.5986 5.70598C29.4667 5.42191 29.4964 5.13509 29.4976 4.845L29.5046 3.5445C29.5078 2.9793 29.6139 2.17358 28.7181 1.95576C28.1624 1.8143 27.6061 1.91833 27.0404 1.88123C26.1063 1.81997 24.6861 2.08993 23.9512 1.58704C23.6384 1.37297 23.5768 0.948028 23.6783 0.663867C23.8015 0.318727 24.1545 0.160819 24.5388 0Z" fill="white"/>
</g>
<defs>
<clipPath id="clip0_6990_2360">
<rect width="32" height="24" fill="white"/>
</clipPath>
</defs>
</svg>
