<svg width="32" height="32" viewBox="0 0 32 32" fill="none" xmlns="http://www.w3.org/2000/svg">
<path d="M28.1675 1.10639C28.924 1.06405 29.5744 1.11544 30.1822 1.62724C30.7497 2.10904 30.9261 2.75901 30.9011 3.478C30.8691 4.39362 30.777 5.27931 30.6283 6.18172C29.9913 9.93922 28.4951 13.4988 26.2562 16.583C25.6709 17.3974 25.1015 18.0793 24.4544 18.8375C24.555 19.2363 24.7316 19.6287 24.8684 20.0172C25.3692 21.4399 25.6576 22.7677 24.9753 24.1837C24.6715 24.8143 24.2747 25.4016 23.855 25.9605C23.2062 26.8242 20.0003 30.5649 19.1666 30.8435C18.8152 30.9609 18.3659 30.9199 18.0365 30.7532C17.8119 30.6395 17.5624 30.4014 17.4388 30.1858C17.1738 29.7239 17.042 29.093 16.8786 28.5824L15.8892 25.49C15.1796 25.877 13.8681 26.6852 13.0826 26.681C12.1688 26.6761 11.6655 26.1508 11.0763 25.5611L10.1666 24.6472L7.62071 22.1025C7.16596 21.6479 5.80524 20.3717 5.55321 19.8872C4.96893 18.7643 5.64543 17.711 6.16936 16.7459C6.25261 16.5925 6.41418 16.2968 6.47336 16.1308L6.48365 16.1013C5.40621 15.7822 4.3333 15.3961 3.25558 15.07C2.86414 14.9516 2.37955 14.8111 2.01086 14.6542C1.86554 14.593 1.73061 14.5097 1.6109 14.4071C1.28925 14.1332 1.14164 13.8608 1.10556 13.438C1.06657 12.9812 1.21577 12.5461 1.54109 12.2108C1.90382 11.8369 2.28744 11.4433 2.68015 11.0803C4.3739 9.51465 6.38996 7.41768 8.63111 6.70937C9.32008 6.49162 10.2068 6.65762 10.9053 6.80834C11.5635 6.95037 12.5922 7.40581 13.1727 7.50312C13.1951 7.50687 14.2381 6.62262 14.3721 6.51531C14.8169 6.16297 15.271 5.82247 15.7339 5.49418C19.3996 2.92286 23.6999 1.4053 28.1675 1.10639ZM10.4179 22.3417C10.7372 22.662 12.8094 24.8411 13.0563 24.8431C13.4233 24.8461 14.2376 24.3323 14.5728 24.1527C17.7943 22.4268 20.7413 20.2647 23.1881 17.5372C26.1778 14.2298 28.1536 10.1327 28.8801 5.73387C29.007 4.92084 29.0899 4.0939 29.1059 3.27118C29.1139 2.85716 28.6993 2.90847 28.423 2.91956C21.9989 3.28603 16.4571 6.2915 12.205 11.0571C10.4121 13.1004 8.88108 15.3593 7.6473 17.7815C7.4993 18.0674 7.12111 18.6514 7.14355 18.9766C7.15805 19.187 10.0159 21.938 10.4179 22.3417ZM18.6441 28.164C18.7132 28.3728 18.7902 28.6295 18.8664 28.8317C20.4661 27.0098 22.4907 25.3392 23.4955 23.0758C23.7161 22.5787 23.334 20.5613 23.0232 20.3342C21.271 21.8953 19.5427 23.3592 17.5017 24.5557C17.751 25.6095 18.3206 27.0758 18.6441 28.164ZM3.1779 13.1379C4.13993 13.4565 5.10408 13.7687 6.07033 14.0743C6.53002 14.2233 6.99099 14.3683 7.45321 14.5093C7.68202 14.0752 8.0734 13.5007 8.35186 13.0911C9.35343 11.616 10.4737 10.2251 11.7014 8.93209C10.809 8.64456 10.1341 8.38606 9.18158 8.44997C7.64571 8.71347 4.34836 11.9469 3.1779 13.1379Z" fill="white"/>
<path d="M20.9818 6.81027C23.0498 6.54971 24.9373 8.01564 25.1966 10.0838C25.456 12.152 23.989 14.0386 21.9206 14.2968C19.854 14.5547 17.9693 13.0892 17.7101 11.0227C17.451 8.95621 18.9154 7.07064 20.9818 6.81027ZM21.6415 12.4977C22.712 12.3946 23.5011 11.451 23.4132 10.3792C23.3252 9.30742 22.3927 8.50505 21.3198 8.57796C20.6122 8.62602 19.9854 9.05136 19.6792 9.69105C19.373 10.3308 19.435 11.0858 19.8414 11.667C20.2478 12.2482 20.9356 12.5656 21.6415 12.4977Z" fill="white"/>
<path d="M4.69909 21.852C5.04522 21.8405 5.35384 21.9312 5.5644 22.2244C5.94025 22.7476 5.5084 23.3557 5.27331 23.8419C5.14684 24.1064 5.03165 24.3761 4.92806 24.6504C4.50475 25.751 4.38444 26.6571 4.18928 27.7917C5.35834 27.6922 6.54637 27.3749 7.63965 26.9539C8.189 26.7424 8.94584 26.1642 9.51559 26.3194C9.73903 26.3813 9.92819 26.5305 10.0405 26.7333C10.1677 26.9643 10.1776 27.206 10.1047 27.4575C9.99259 27.8439 9.61247 28.013 9.27894 28.19C8.14559 28.7585 6.9395 29.1685 5.6945 29.4086C4.97503 29.5506 4.2735 29.6407 3.54128 29.6773C2.18256 29.7452 2.29373 28.799 2.38708 27.8138C2.526 26.244 2.9189 24.7073 3.55044 23.2635C3.79153 22.7196 4.06009 21.9768 4.69909 21.852Z" fill="white"/>
</svg>
