<svg width="29" height="29" viewBox="0 0 29 29" fill="none" xmlns="http://www.w3.org/2000/svg">
<g clip-path="url(#clip0_6990_2112)">
<path d="M13.1274 -0.00012207H15.4131C15.7164 0.108751 16.2056 0.110127 16.5371 0.169736C17.1578 0.281312 17.7626 0.413288 18.3671 0.594758C22.1426 1.72281 25.2858 4.35791 27.0553 7.87864C27.6533 9.07468 28.082 10.3481 28.329 11.6623C28.389 11.9914 28.4961 13.0108 28.5709 13.2323V15.3889L28.5628 15.4133C28.4771 15.6836 28.4157 16.4406 28.3594 16.7569C28.2606 17.3123 28.1496 17.7827 27.9902 18.3252C26.8903 22.0265 24.3466 25.1291 20.9328 26.9332C19.7264 27.5699 18.4363 28.0334 17.1005 28.3101C16.7997 28.3701 15.666 28.4937 15.4949 28.5713H13.1504C12.9721 28.5063 11.9029 28.3754 11.6 28.3196C10.5209 28.1154 9.46968 27.7846 8.46792 27.3345C4.71974 25.6641 1.87075 22.4627 0.646808 18.546C0.461407 17.9502 0.330324 17.3783 0.213115 16.7666C0.14771 16.4253 0.122685 15.7405 -0.000549316 15.447V13.098C0.0930648 12.9173 0.135406 12.2763 0.175765 12.031C0.230374 11.7162 0.292562 11.4027 0.362277 11.0909C0.613176 9.9847 0.997015 8.91291 1.50542 7.8989C3.25818 4.37128 6.3963 1.72927 10.171 0.603257C10.7786 0.422662 11.3966 0.279035 12.0216 0.173163C12.3202 0.123392 12.858 0.0972468 13.1274 -0.00012207ZM14.9969 26.6451C21.8256 26.2506 27.04 20.3926 26.6408 13.5642C26.2416 6.73576 20.3801 1.52528 13.552 1.92911C6.73037 2.33256 1.52599 8.18724 1.9248 15.0091C2.32361 21.831 8.17476 27.0393 14.9969 26.6451Z" fill="#FF5A00"/>
<path d="M13.8564 17.1429C14.3412 17.1201 14.827 17.1394 15.3084 17.2005C16.7557 17.3771 18.1196 17.9093 19.2994 18.7636C19.7619 19.0985 20.352 19.4604 20.2628 20.1213C20.2271 20.3802 20.0892 20.6141 19.8798 20.7706C19.1779 21.3014 18.6575 20.6602 18.1338 20.2794C17.1502 19.5641 16.1005 19.2379 14.9062 19.0843C13.3018 18.9862 11.861 19.3058 10.5122 20.2145C10.159 20.4292 9.86172 20.8424 9.42972 20.8906C8.90051 20.9497 8.41728 20.6129 8.36471 20.072C8.29244 19.328 8.90009 19.0337 9.40427 18.6673C10.7412 17.6958 12.2315 17.2882 13.8564 17.1429Z" fill="#FF5A00"/>
<path d="M18.0462 9.91418C18.402 9.92205 18.9438 10.16 18.9947 10.548C19.1072 11.4062 19.0239 12.3247 19.0412 13.1923C19.0529 13.7804 18.7822 14.1687 18.1885 14.2885C16.9428 14.2734 17.148 13.1678 17.1322 12.2936C17.13 12.1672 17.1274 12.0308 17.1326 11.9049C17.1667 11.0789 16.9108 10.052 18.0462 9.91418Z" fill="#FF5A00"/>
<path d="M10.3975 9.91491C10.6231 9.90601 10.7618 9.9516 10.9562 10.0468C11.1108 10.1226 11.375 10.4302 11.3857 10.5939C11.4438 11.5187 11.4201 12.4675 11.4 13.3947C11.3891 13.8973 11.0362 14.1777 10.5818 14.2877C9.22716 14.2863 9.52783 12.9115 9.51318 11.9825C9.4999 11.1419 9.32529 10.0598 10.3975 9.91491Z" fill="#FF5A00"/>
</g>
<defs>
<clipPath id="clip0_6990_2112">
<rect width="28.5714" height="28.5714" fill="white"/>
</clipPath>
</defs>
</svg>
