<svg width="32" height="32" viewBox="0 0 32 32" fill="none" xmlns="http://www.w3.org/2000/svg">
<g clip-path="url(#clip0_6990_2346)">
<path d="M14.6998 0H17.2598C17.5995 0.121937 18.1474 0.123479 18.5187 0.190241C19.2139 0.315206 19.8913 0.463019 20.5683 0.666266C24.7968 1.92969 28.3172 4.881 30.2991 8.82422C30.9689 10.1638 31.449 11.59 31.7256 13.062C31.7928 13.4305 31.9128 14.5723 31.9965 14.8203V17.2357L31.9875 17.2631C31.8915 17.5658 31.8228 18.4137 31.7596 18.7679C31.649 19.3899 31.5246 19.9167 31.3462 20.5244C30.1143 24.6698 27.2654 28.1447 23.4419 30.1653C22.0907 30.8784 20.6458 31.3975 19.1497 31.7075C18.8128 31.7747 17.5431 31.9131 17.3515 32H14.7256C14.5259 31.9272 13.3283 31.7806 12.9891 31.7181C11.7806 31.4894 10.6032 31.1189 9.48121 30.6148C5.28324 28.744 2.09238 25.1584 0.721562 20.7716C0.513912 20.1044 0.367099 19.4638 0.235825 18.7787C0.162571 18.3965 0.134543 17.6295 -0.003479 17.3008V14.6698C0.101369 14.4675 0.148791 13.7496 0.193993 13.4748C0.255155 13.1222 0.324805 12.7712 0.402887 12.422C0.683893 11.183 1.11379 9.98259 1.68321 8.84691C3.6463 4.89597 7.16099 1.93692 11.3886 0.675784C12.0692 0.473519 12.7613 0.312656 13.4613 0.194079C13.7957 0.138335 14.3981 0.109053 14.6998 0ZM16.7936 29.8427C24.4418 29.4008 30.282 22.8398 29.8349 15.192C29.3878 7.54419 22.8229 1.70845 15.1753 2.16074C7.53515 2.6126 1.70624 9.16984 2.15291 16.8103C2.59958 24.4508 9.15286 30.2842 16.7936 29.8427Z" fill="white"/>
<path d="M15.5184 19.1998C16.0613 19.1743 16.6055 19.1959 17.1446 19.2643C18.7656 19.4622 20.2932 20.0582 21.6145 21.0149C22.1326 21.3901 22.7934 21.7954 22.6935 22.5357C22.6536 22.8256 22.4991 23.0875 22.2646 23.2628C21.4784 23.8573 20.8956 23.1392 20.309 22.7126C19.2075 21.9115 18.0318 21.5462 16.6941 21.3742C14.8973 21.2642 13.2836 21.6222 11.7729 22.64C11.3773 22.8804 11.0444 23.3432 10.5605 23.3972C9.9678 23.4634 9.42658 23.0862 9.3677 22.4803C9.28677 21.6471 9.96733 21.3175 10.532 20.9071C12.0294 19.8191 13.6985 19.3625 15.5184 19.1998Z" fill="white"/>
<path d="M20.212 11.1035C20.6105 11.1123 21.2173 11.3788 21.2743 11.8134C21.4003 12.7746 21.3071 13.8033 21.3264 14.775C21.3396 15.4337 21.0363 15.8686 20.3714 16.0027C18.9762 15.9859 19.206 14.7476 19.1884 13.7685C19.1858 13.6269 19.1829 13.4742 19.1888 13.3331C19.2269 12.408 18.9404 11.2578 20.212 11.1035Z" fill="white"/>
<path d="M11.6434 11.1047C11.8961 11.0948 12.0515 11.1458 12.2691 11.2525C12.4424 11.3373 12.7383 11.6819 12.7502 11.8652C12.8153 12.901 12.7887 13.9636 12.7662 15.0021C12.754 15.565 12.3587 15.8791 11.8498 16.0022C10.3326 16.0007 10.6694 14.4609 10.653 13.4205C10.6381 12.479 10.4425 11.2671 11.6434 11.1047Z" fill="white"/>
</g>
<defs>
<clipPath id="clip0_6990_2346">
<rect width="32" height="32" fill="white"/>
</clipPath>
</defs>
</svg>
