<svg width="115" height="115" viewBox="0 0 115 115" fill="none" xmlns="http://www.w3.org/2000/svg">
<path d="M88.5267 59.1453L86.2855 35.0827C85.9572 31.5559 83.1773 28.7549 79.6531 28.3999L55.6082 25.9764C53.4055 25.754 51.219 26.529 49.6474 28.0887L4.13065 73.2618C2.54802 74.8325 2.53833 77.3891 4.10902 78.9717L35.1426 110.241C36.7133 111.824 39.2699 111.834 40.8525 110.263L86.3693 65.0899C87.9408 63.5302 88.7324 61.3496 88.5267 59.1453ZM73.9611 40.6815C72.5833 39.2933 72.5914 37.0508 73.98 35.6726C75.3682 34.2949 77.6112 34.3034 78.9889 35.6916C80.3666 37.0798 80.3581 39.3227 78.9699 40.7005C77.5813 42.0786 75.3388 42.0697 73.9611 40.6815Z" fill="#F25C00"/>
<path d="M86.2851 35.0833L88.5263 59.1459C88.732 61.3502 87.9405 63.5308 86.3689 65.0905L40.8522 110.264C39.2694 111.834 36.7131 111.825 35.1423 110.242L33.4872 108.574C45.7613 96.4967 68.91 73.707 78.3547 64.4085C81.4845 61.3272 83.3784 57.2093 83.6905 52.8284C84.2733 44.6466 82.6232 36.8736 80.3551 28.5057C83.5408 29.1366 85.9793 31.7944 86.2851 35.0833Z" fill="#853602"/>
<path d="M34.5112 110.875L3.47747 79.6053C1.56002 77.6732 1.57189 74.5415 3.50388 72.624L49.0209 27.4506C50.7895 25.6954 53.2258 24.832 55.705 25.0819L79.7501 27.5053C83.6923 27.9026 86.8202 31.0544 87.1876 34.9994L89.4287 59.0622C89.6599 61.5432 88.778 63.9728 87.0094 65.7281L41.4924 110.902C39.5604 112.819 36.4286 112.807 34.5112 110.875ZM83.5338 31.1879C82.499 30.1451 81.1143 29.4501 79.5698 29.2944L55.5247 26.871C53.5822 26.6752 51.6733 27.3517 50.2876 28.727L4.77056 73.9004C3.54232 75.1193 3.53478 77.1103 4.75379 78.3386L35.7875 109.608C37.0065 110.837 38.9975 110.844 40.2257 109.625L85.7428 64.4518C87.1285 63.0766 87.8194 61.1729 87.6384 59.229L85.3972 35.1662C85.2533 33.6209 84.5685 32.2304 83.5338 31.1879Z" fill="white"/>
<path d="M73.3321 41.3154C71.6071 39.5773 71.6178 36.76 73.3559 35.035C75.094 33.3101 77.9113 33.3207 79.6363 35.0588C81.3612 36.7969 81.3506 39.6143 79.6125 41.3392C77.8744 43.0641 75.057 43.0534 73.3321 41.3154ZM78.36 36.3254C77.3335 35.2911 75.6569 35.2848 74.6226 36.3113C73.5884 37.3378 73.5819 39.0144 74.6084 40.0487C75.635 41.083 77.3116 41.0894 78.3459 40.0628C79.3802 39.0363 79.3865 37.3597 78.36 36.3254Z" fill="black"/>
<path d="M75.8959 37.6048C75.6868 37.3941 75.5864 37.0843 75.6564 36.7733C76.3495 33.6945 77.5274 30.7342 79.1575 27.9746C80.8812 25.0552 83.0404 22.4747 85.5752 20.3053C86.594 19.4332 87.9757 18.3632 89.6306 17.8257C91.4426 17.2361 93.2775 17.4042 94.664 18.2874C96.268 19.3097 97.2287 21.2954 97.1713 23.4693C97.1289 25.0924 96.5837 26.7487 95.4557 28.6813C93.4213 32.1669 90.4401 35.053 86.8344 37.0274C86.3989 37.2659 85.8524 37.1061 85.614 36.6707C85.3755 36.2352 85.5352 35.6887 85.9708 35.4503C89.29 33.6326 92.0329 30.9786 93.9027 27.775C94.8722 26.1141 95.3396 24.7309 95.3737 23.4221C95.414 21.8987 94.7562 20.4787 93.6978 19.804C92.7799 19.2194 91.4672 19.1191 90.1865 19.5359C88.8337 19.9752 87.6364 20.9079 86.7445 21.6714C84.3605 23.7119 82.3288 26.1403 80.7059 28.8892C79.1711 31.4872 78.0626 34.2727 77.4107 37.1683C77.3017 37.6527 76.8205 37.957 76.3361 37.848C76.1628 37.8089 76.0125 37.7222 75.8959 37.6048Z" fill="white"/>
</svg>
