<svg width="23" height="23" viewBox="0 0 23 23" fill="none" xmlns="http://www.w3.org/2000/svg">
<path d="M18.2299 0.00249695C19.1298 -0.0305281 20.0111 0.264969 20.7091 0.833856C20.9942 1.06702 21.2108 1.31208 21.4694 1.55695C22.2728 2.31789 22.8249 3.0618 22.9414 4.1983C23.0383 5.14314 22.7543 6.13364 22.1438 6.8688C21.8475 7.22548 21.3717 7.67517 21.0346 8.01239L19.1143 9.93323L12.9873 16.0597L8.80588 20.2401L7.72513 21.3235C6.44319 22.6143 6.34241 22.5428 4.55832 22.7093C3.7116 22.7708 2.86641 22.8744 2.01716 22.9446C1.44869 22.9916 0.993568 22.8999 0.543224 22.5271C0.241255 22.2771 0.0050056 21.786 0.00109935 21.3921C-0.0129944 20.6893 0.11213 19.977 0.164161 19.2752C0.19863 18.8101 0.247662 18.3427 0.287287 17.8785C0.319943 17.496 0.346318 17.113 0.446412 16.7424C0.536849 16.4074 0.728474 16.0801 0.961818 15.828C1.31266 15.4489 1.68257 15.091 2.04672 14.7279L4.00666 12.7719L10.1958 6.58136L14.1507 2.6273C14.6067 2.1707 15.092 1.69802 15.5378 1.23508C16.3328 0.409581 17.0885 0.0797626 18.2299 0.00249695ZM2.01782 20.8772C3.03547 20.8118 4.10169 20.6992 5.12076 20.6083C5.78582 20.5347 5.76969 20.416 6.22782 19.9578L7.21554 18.9687L10.6661 15.5142L15.5724 10.6104L17.0958 9.08805C17.2808 8.90339 17.706 8.50095 17.8592 8.31367C17.4944 7.97505 14.7165 5.13277 14.5583 5.08033C13.8787 5.69802 13.1122 6.50661 12.4513 7.16842L8.71466 10.9096L4.71076 14.9168C4.33857 15.2889 2.3966 17.1371 2.34544 17.4348C2.17663 18.4171 2.19047 19.8441 2.01782 20.8772ZM16.0069 3.64242C17.0488 4.56608 18.1091 5.80208 19.1455 6.74877C19.2564 6.84239 19.2188 6.8398 19.3395 6.84155C19.5225 6.74123 19.6337 6.55292 19.7808 6.4038C20.1458 6.03386 20.6802 5.63289 20.8616 5.13414C21.1856 4.24364 20.712 3.6007 20.11 3.02989C19.3665 2.32477 19.1749 1.91505 18.0619 1.9978C17.3592 2.14845 16.446 3.0942 16.0069 3.64242Z" fill="white"/>
</svg>
